<svg id="eWbn4yXREhm6" xmlns="http://www.w3.org/2000/svg" xmlns:xlink="http://www.w3.org/1999/xlink"
    viewBox="0 0 282 721" shape-rendering="geometricPrecision" text-rendering="geometricPrecision">

    <path
        d="M12.1387,500.94c2.4359,6.517,8.3993,11.065,15.3408,11.672c6.933.622,13.6306-2.788,17.1924-8.792c10.5097-17.759,26.8459-37.723,50.2541-47.043-21.0644-46.464-33.5862-87.851-40.9902-121.522-27.854,20.422-76.7618,71.917-41.7949,165.685h-.0022Z"
        fill="#f05c42" />
    <path
        d="M16.6808,425.816c9.4352-28.688,25.8805-51.577,43.8135-63.932-2.5408-9.331-4.7091-18.221-6.5585-26.629-27.854,20.422-76.7618,71.917-41.7949,165.685.687,1.84,1.6631,3.512,2.8554,4.993-8.11246-20.752-8.16811-50.152,1.6867-80.117h-.0022Z"
        fill="#f76c59" />
    <path
        d="M268.861,500.94c-2.438,6.516-8.401,11.065-15.34,11.672-6.936.622-13.631-2.786-17.193-8.792-10.51-17.759-26.848-37.723-50.254-47.041c21.065-46.464,33.586-87.851,40.99-121.521c27.854,20.421,76.76,71.917,41.797,165.682Z"
        fill="#f05c42" />
    <path
        d="M264.319,425.816c-9.435-28.688-25.88-51.577-43.811-63.93c2.541-9.331,4.709-18.221,6.558-26.628c27.854,20.421,76.76,71.917,41.798,165.682-.688,1.84-1.664,3.513-2.856,4.995c8.113-20.752,8.168-50.151-1.687-80.117l-.002-.002Z"
        fill="#f76c59" />
    <path id="eWbn4yXREhm6"
        d="M195.942,553.076c0,31.207-56.603,166.926-56.603,166.926s-56.603-135.719-56.6009-166.924c0-31.202,25.3429-56.497,56.6029-56.497c31.262,0,56.603,25.295,56.603,56.497l-.002-.002Z"
        fill="#ffef00" />
    <path id="eWbn4yXREhm7"
        d="M189.649,548.66c0,27.737-50.31,148.366-50.31,148.366s-50.3079-120.631-50.3079-148.366c0-27.733,22.5239-50.216,50.3099-50.216c27.785,0,50.31,22.483,50.31,50.216h-.002Z"
        fill="#ffd400" />
    <path id="eWbn4yXREhm8"
        d="M183.356,544.244c0,24.267-44.017,129.805-44.017,129.805s-44.0149-105.54-44.0149-129.805s19.7069-43.934,44.0149-43.934c24.309,0,44.017,19.671,44.017,43.934Z"
        fill="#ffba00" />
    <path id="eWbn4yXREhm9"
        d="M177.063,539.828c0,20.797-37.724,111.246-37.724,111.246s-37.722-90.449-37.722-111.246c0-20.796,16.888-37.653,37.722-37.653c20.833,0,37.724,16.857,37.724,37.655v-.002Z"
        fill="#ffa000" />
    <path id="eWbn4yXREhm10"
        d="M170.767,535.411c0,17.328-31.43,92.687-31.43,92.687s-31.429-75.361-31.429-92.687c0-17.325,14.069-31.371,31.429-31.373c17.359,0,31.43,14.046,31.43,31.373Z"
        fill="#ff8500" />
    <path
        d="M116.643,453.438L97.882,509.832c0,0,6.263,10.845,42.345,11.232c36.082.381,42.367-10.337,42.367-10.337l-17.563-56.779-48.39-.51h.002Z"
        clip-rule="evenodd" fill="#0f3041" fill-rule="evenodd" />
    <path
        d="M239.331,244.139C240.374,140.823,183.852,35.1679,154.99,6.64047c-4.377-4.30091-10.287-6.683186-16.441-6.640454-6.135.064097-11.995,2.566014-16.291,6.958804C94.2774,35.6316,40.0612,141.197,41.0951,244.126c0,0-5.1607,95.069,59.6119,225.656h79.046c64.724-130.565,59.576-225.645,59.576-225.645l.002.002Z"
        fill="#0f3041" />
    <path
        d="M47.3795,312.373c30.0181,4.469,61.3395,6.869,93.5715,6.869c31.694,0,62.499-2.327,92.057-6.653c7.704-42.856,6.323-68.452,6.323-68.452C240.374,140.821,183.852,35.1658,154.99,6.63833c-4.377-4.29877-10.287-6.681046-16.441-6.638314-6.135.064097-11.995,2.566014-16.291,6.958804C94.2774,35.6316,40.0612,141.197,41.0951,244.126c0,0-1.3806,25.511,6.2865,68.247h-.0021Z"
        fill="#041921" />
    <path
        d="M154.988,6.64047c-4.375-4.30091-10.285-6.683186-16.439-6.640454-6.135.064097-11.995,2.566014-16.291,6.958804C94.2774,35.6316,40.0612,141.197,41.0951,244.126c0,0-1.2287,22.742,5.0836,61.241c30.3006,4.777,62.0413,7.322,94.7443,7.322c32.182,0,63.426-2.472,93.293-7.1c6.346-38.625,5.117-61.45,5.117-61.45c1.043-103.316-55.479-208.9711-84.341-237.49853h-.004Z"
        fill="#f05c42" />
    <path
        d="M204.227,202.38c0,35.632-28.937,64.52-64.64,64.52s-64.6317-28.886-64.6317-64.52c0-35.619,28.9267-64.514,64.6317-64.516c35.703,0,64.64,28.897,64.64,64.516Z"
        fill="#0f3041" />
    <path
        d="M195.036,202.38c0,30.566-24.823,55.346-55.449,55.344-30.626,0-55.4405-24.778-55.4405-55.344c0-30.551,24.8145-55.339,55.4385-55.339c30.628,0,55.449,24.786,55.449,55.339h.002Z"
        fill="#041921" />
    <path
        d="M187.906,202.38c0,26.635-21.629,48.227-48.317,48.227-26.687,0-48.3104-21.592-48.3104-48.227c0-26.622,21.6234-48.22,48.3104-48.22c26.688,0,48.317,21.598,48.317,48.22Z"
        fill="#ffb200" />
    <path d="M124.603,153.475l-14.495,9.577l53.36,80.47l14.495-9.577-53.36-80.47Z" opacity="0.27" fill="#fff" />
    <path d="M105.943,170.295L91.4491,179.87l49.2769,74.313l14.494-9.575-49.277-74.313Z" opacity="0.27" fill="#fff" />
    <path
        d="M139.591,61.4883c16.587,0,31.63-6.555,42.703-17.1951-9.99-17.0135-19.628-30.0636-27.306-37.65487-4.375-4.29877-10.285-6.681046-16.439-6.638314-6.135.064097-11.995,2.566014-16.291,6.958804C114.942,14.456,105.832,27.2199,96.3836,43.8103c11.1174,10.9286,26.3724,17.6759,43.2094,17.678h-.002Z"
        fill="#0f3041" />
    <path d="M103.526,492.87h73.545l-5.572-18.016h-61.979l-5.994,18.016Z" clip-rule="evenodd" fill="#24505e"
        fill-rule="evenodd" />
    <path
        d="M187.564,467.661h-93.278c-4.1162.015-7.451,4.046-7.451,9.022c0,4.983,3.3455,9.023,7.4724,9.023.1584,0,.3125-.017.4666-.03h92.323c.154.013.308.03.467.03c4.127,0,7.472-4.04,7.472-9.023c0-4.984-3.345-9.022-7.472-9.022Z"
        fill="#f05c42" />
    <path
        d="M57.7159,297.859c-.259,2.246-2.3181,3.85-4.5934,3.577-2.2775-.274-3.8957-2.323-3.6132-4.562.2847-2.239,2.3374-3.824,4.5914-3.551c2.2518.269,3.8742,2.297,3.6152,4.536Z"
        fill="#0f3041" />
    <path
        d="M53.3472,299.562c-.1798-.021-.3061-.188-.2868-.361.1798-1.487.2697-2.229.4495-3.718.0214-.175.1819-.303.3575-.282.1776.022.306.184.2846.359-.1798,1.487-.2654,2.233-.443,3.72-.0214.175-.1841.303-.3639.282h.0021Z"
        fill="#24505e" />
    <path
        d="M55.4535,297.921c-1.5027-.177-2.2561-.265-3.7587-.449-.1777-.021-.3061-.183-.2847-.356.0214-.18.1841-.304.3617-.282c1.5026.183,2.254.271,3.7566.448.1776.022.3061.182.2847.361-.0193.173-.1798.299-.3596.278Z"
        fill="#24505e" />
    <path
        d="M76.7555,299.784c-.1969,2.25-2.2133,3.912-4.495,3.699-2.2839-.214-3.9535-2.22-3.7309-4.468.2227-2.243,2.2368-3.88,4.4951-3.671c2.2582.214,3.9277,2.193,3.7308,4.44Z"
        fill="#0f3041" />
    <path
        d="M72.4382,301.6c-.1777-.017-.3104-.181-.2954-.354.1412-1.492.2119-2.235.351-3.727.015-.175.1755-.305.3532-.29.1776.017.3104.175.2932.35-.1391,1.492-.2076,2.239-.3489,3.731-.0171.175-.1755.307-.3553.292l.0022-.002Z"
        fill="#24505e" />
    <path
        d="M74.493,299.91c-1.5069-.136-2.2582-.207-3.7651-.352-.1777-.017-.3125-.178-.2954-.353.0193-.177.1798-.307.3575-.29c1.5069.145,2.2582.215,3.7629.354.1777.015.3104.169.2954.346-.015.176-.1755.315-.3553.297v-.002Z"
        fill="#24505e" />
    <path
        d="M95.8336,301.201c-.137,2.254-2.1062,3.965-4.3944,3.816-2.2882-.152-4.0048-2.113-3.8422-4.365.1627-2.252,2.1255-3.942,4.388-3.791c2.2604.15,3.9835,2.088,3.8486,4.34Z"
        fill="#0f3041" />
    <path
        d="M91.5655,303.128c-.1798-.013-.3147-.171-.3018-.346.1006-1.496.1455-2.241.2483-3.735.0107-.175.1669-.312.3446-.301.1776.011.3146.169.3039.344-.0984,1.493-.1477,2.243-.2461,3.737-.0107.177-.1691.312-.3489.301Z"
        fill="#24505e" />
    <path
        d="M93.5775,301.384c-1.5111-.096-2.2646-.147-3.7758-.252-.1776-.012-.3146-.168-.3018-.346.0129-.177.167-.31.3468-.297c1.509.105,2.2646.154,3.7715.252.1798.011.3125.161.3018.34-.0107.175-.1669.316-.3446.303h.0021Z"
        fill="#24505e" />
    <path
        d="M114.933,302.105c-.077,2.258-1.999,4.021-4.287,3.931-2.291-.092-4.063-2.002-3.958-4.258.105-2.254,2.023-3.998,4.287-3.906c2.263.09,4.037,1.981,3.96,4.233h-.002Z"
        fill="#0f3041" />
    <path
        d="M110.721,304.145c-.178-.009-.321-.16-.315-.335.062-1.496.088-2.246.15-3.744.006-.175.162-.314.342-.307.178.006.317.158.309.335-.058,1.498-.093,2.246-.15,3.743-.007.176-.157.314-.336.308Z"
        fill="#24505e" />
    <path
        d="M112.681,302.348c-1.511-.055-2.266-.083-3.778-.147-.177-.009-.316-.158-.306-.336.007-.177.157-.318.336-.312c1.509.064,2.261.094,3.77.152.177.006.321.156.314.333-.006.175-.16.314-.338.308l.002.002Z"
        fill="#24505e" />
    <path
        d="M134.043,302.504c-.017,2.258-1.89,4.072-4.182,4.042-2.291-.029-4.114-1.895-4.071-4.153.042-2.256,1.915-4.047,4.182-4.017c2.265.03,4.091,1.87,4.071,4.126v.002Z"
        fill="#0f3041" />
    <path
        d="M129.886,304.653c-.179-.002-.323-.147-.321-.324.024-1.498.033-2.248.054-3.746.002-.175.148-.318.327-.314.18.002.326.15.321.325-.019,1.498-.027,2.245-.047,3.743-.002.175-.154.319-.334.316Z"
        fill="#24505e" />
    <path
        d="M131.804,302.807c-1.513-.017-2.269-.027-3.782-.051-.18-.002-.323-.154-.321-.329.002-.179.156-.32.334-.316c1.511.026,2.26.036,3.771.053.178,0,.324.148.324.325-.002.177-.15.321-.328.318h.002Z"
        fill="#24505e" />
    <path
        d="M153.158,302.395c.043,2.258-1.777,4.124-4.067,4.154-2.293.029-4.166-1.784-4.18-4.043-.018-2.256,1.804-4.098,4.069-4.126c2.266-.029,4.135,1.759,4.18,4.015h-.002Z"
        fill="#0f3041" />
    <path
        d="M149.063,304.651c-.178.002-.327-.139-.33-.314-.019-1.497-.027-2.245-.047-3.743-.002-.175.142-.325.319-.327.178-.002.326.139.326.316.021,1.498.034,2.248.055,3.746.002.175-.143.32-.323.322Z"
        fill="#24505e" />
    <path
        d="M150.927,302.758c-1.509.024-2.269.035-3.78.049-.179,0-.325-.143-.325-.318-.004-.179.141-.323.321-.325c1.511-.017,2.267-.027,3.778-.053.18-.002.325.139.325.316.005.177-.139.327-.319.331Z"
        fill="#24505e" />
    <path
        d="M172.262,301.775c.102,2.255-1.666,4.167-3.956,4.259s-4.21-1.673-4.285-3.929c-.075-2.255,1.695-4.143,3.96-4.233c2.264-.092,4.178,1.654,4.281,3.906v-.003Z"
        fill="#0f3041" />
    <path
        d="M168.231,304.145c-.18.006-.332-.132-.342-.308-.058-1.497-.09-2.245-.15-3.743-.005-.175.135-.327.314-.335.178-.007.328.132.332.307.062,1.498.096,2.248.156,3.744.007.175-.134.326-.314.335h.004Z"
        fill="#24505e" />
    <path
        d="M170.044,302.199c-1.513.064-2.267.094-3.778.149-.178.006-.33-.132-.334-.31-.006-.177.131-.329.308-.333c1.512-.058,2.263-.088,3.772-.152.18-.006.336.129.345.308.008.177-.135.331-.313.34v-.002Z"
        fill="#24505e" />
    <path
        d="M191.352,300.65c.163,2.251-1.556,4.213-3.844,4.367-2.288.151-4.255-1.562-4.392-3.816-.137-2.252,1.586-4.19,3.849-4.34c2.26-.151,4.223,1.541,4.387,3.791v-.002Z"
        fill="#0f3041" />
    <path
        d="M187.382,303.128c-.18.011-.332-.124-.343-.299-.1-1.496-.152-2.244-.252-3.739-.011-.178.124-.333.304-.344.177-.011.332.124.344.301.101,1.496.155,2.239.253,3.735.013.175-.128.335-.308.346h.002Z"
        fill="#24505e" />
    <path
        d="M189.144,301.132c-1.507.105-2.259.156-3.77.252-.178.011-.336-.128-.347-.303-.01-.179.127-.329.306-.34c1.509-.096,2.259-.147,3.768-.252.18-.013.336.12.351.297.013.175-.127.334-.306.346h-.002Z"
        fill="#24505e" />
    <path
        d="M210.416,299.015c.224,2.248-1.445,4.256-3.727,4.468-2.284.213-4.296-1.449-4.493-3.699-.199-2.247,1.475-4.228,3.733-4.44c2.256-.209,4.264,1.428,4.487,3.671Z"
        fill="#0f3041" />
    <path
        d="M206.511,301.602c-.177.018-.336-.119-.351-.294-.139-1.492-.212-2.24-.351-3.731-.017-.175.118-.333.298-.348.177-.015.336.115.353.29.141,1.492.21,2.235.351,3.727.015.175-.118.339-.297.356h-.003Z"
        fill="#24505e" />
    <path
        d="M208.222,299.556c-1.507.145-2.263.218-3.77.354-.18.017-.336-.119-.353-.295-.015-.177.116-.333.295-.35c1.507-.139,2.256-.207,3.763-.35.178-.017.339.113.358.29.017.175-.114.336-.296.351h.003Z"
        fill="#24505e" />
    <path
        d="M229.438,296.874c.285,2.239-1.331,4.288-3.609,4.562-2.279.273-4.336-1.333-4.598-3.577-.256-2.241,1.364-4.267,3.618-4.536c2.252-.271,4.304,1.312,4.587,3.551h.002Z"
        fill="#0f3041" />
    <path
        d="M225.602,299.56c-.18.023-.338-.107-.359-.28-.18-1.487-.27-2.233-.448-3.72-.021-.175.107-.34.285-.361s.338.109.36.282c.179,1.487.267,2.229.449,3.718.022.175-.107.34-.287.361Z"
        fill="#24505e" />
    <path
        d="M227.257,297.472c-1.503.186-2.254.272-3.757.449-.177.021-.34-.105-.359-.278-.02-.177.107-.339.284-.361c1.503-.177,2.254-.263,3.757-.448.178-.022.34.102.364.282.021.173-.109.333-.287.356h-.002Z"
        fill="#24505e" />
</svg>
