<svg xmlns="http://www.w3.org/2000/svg" width="489" height="529" fill="none" viewBox="0 0 489 529"><path fill="#965932" d="M103.881 359.454C103.881 359.454 86.5454 356.047 81.6993 356.773C76.8605 357.493 55.5943 364.118 51.7073 363.377C47.8202 362.643 45.7858 364.365 46.2508 367.953C46.7303 371.549 56.7205 380.448 65.6135 376.859C74.5211 373.263 82.1718 372.108 86.2332 374.099C90.2946 376.074 103.881 359.454 103.881 359.454Z"/><path fill="#BF6B59" d="M69.4169 84.4798C75.0179 84.3482 79.7546 86.3863 81.4393 91.9548C94.4912 131.804 129.352 165.325 152.377 202.824C171.51 190.816 212.115 169.227 222.301 166.06C234.863 162.152 294.797 108.979 308.558 121.139C370.446 175.817 293.757 219.903 287.014 216.7C280.272 213.511 260.06 241.121 235.749 251.546C211.454 261.977 149.667 281.286 131.307 280.124C130.642 280.082 130.036 279.951 129.476 279.754C120.56 277.485 109.324 262.932 102.102 256.048C90.7166 245.202 74.6391 188.65 66.3564 166.283C58.0665 143.917 49.0718 117.641 43.2085 102.379C40.5911 95.5619 57.0947 84.7694 69.4169 84.4798Z"/><path fill="#545C56" d="M56.7968 348.359C50.1997 344.683 28.4087 346.147 32.7741 361.605C25.5085 373.322 8.9499 370.543 28.0761 393.092C45.1719 405.267 56.2011 437.927 70.4343 440.223C84.6675 442.504 98.3402 384.284 68.5993 350.505"/><path fill="#737D75" d="M56.8589 349.552C50.4757 345.995 31.8947 351.524 36.1186 366.48C29.0886 377.817 32.7375 368.871 51.2437 390.689C67.7852 402.469 56.2823 436.216 70.0541 438.437C83.8258 440.644 97.0552 384.312 68.2785 351.628"/><path fill="#B5614F" d="M192.793 215.062C201.62 214.971 212.409 217.401 225.648 223.027C260.951 238.027 421.571 375.678 421.571 375.678C440.113 433.037 419.813 449.802 346.562 440.598C334.566 439.091 322.453 434.429 310.437 427.613C312.885 438.639 314.596 446.085 315.667 447.156C315.667 447.156 315.667 447.158 315.667 447.158C315.668 447.159 315.67 447.161 315.671 447.162C315.696 447.182 335.969 463.051 336.847 475.393C337.734 487.742 324.35 497.455 301.914 500.978C279.485 504.516 206.06 512.522 196.346 511.635C186.639 510.756 187.809 498.763 196.346 491.826C203.546 485.993 212.235 488.774 221.949 483.006C231.656 477.238 249.051 483.042 268.006 453.005H268.012C259.185 440.097 192.988 362.448 181.516 343.031C170.385 324.199 139.489 272.382 145.865 261.251C146.235 251.87 156.899 244.033 162.752 233.394C168.819 222.366 178.081 215.213 192.793 215.062L192.793 215.062Z"/><path fill="#BF6B59" d="M81.4386 91.9536C81.4386 91.9536 75.2846 69.6015 72.3493 64.2042C69.4068 58.7996 61.4948 54.8406 48.286 48.4553C35.07 42.07 30.7397 29.4956 30.7397 29.4956C30.7397 29.4956 28.3929 31.8347 24.4695 33.382C20.5534 34.922 8.07851 49.7338 7.4682 56.0828C6.86517 62.4245 27.0996 88.0382 35.1135 95.208C43.1274 102.378 51.3374 103.162 51.3374 103.162L81.4386 91.9536Z"/><path fill="#CA7765" d="M242.245 152.99C258.542 128.539 317.741 103.724 352.158 115.194C386.575 126.664 448.044 165.008 454.62 225.584C461.909 292.732 512.05 408.307 474.35 450.359C446.116 467.118 374.63 456.534 354.331 413.297C334.031 370.06 248.421 265.506 229.886 247.193C217.483 236.535 216.042 236.212 242.245 152.99Z"/><path fill="#CA7765" d="M242.813 135.347C242.813 135.347 248.756 136.393 252.163 144.413C255.578 152.447 261.013 170.027 261.013 170.027C261.013 170.027 338.529 137.461 339.277 127.822C340.033 118.182 320.539 101.024 311.653 93.2655C299.346 82.5217 252.614 65.2618 252.614 65.2618L242.813 135.347Z"/><path fill="#AD5643" d="M251.895 142.571C238.744 150.789 239.018 162.458 230.143 192.365C222.02 220.564 216.673 230.653 227.282 262.774C238.34 282.758 330.332 393.995 330.332 393.995C330.332 393.995 470.658 384.777 443.078 363.377C366.783 304.18 392.997 231.886 397.749 216.544C408.371 182.264 361.763 116.634 325.842 137.454C289.906 158.266 291.13 184.921 277.275 180.897C263.427 176.865 284.76 136.731 284.76 136.731L256.826 149.525"/><path fill="#CA7765" d="M242.303 233.311C251.325 233.107 261.88 235.189 274.016 240.343C309.319 255.351 469.939 393.002 469.939 393.002C488.474 450.361 468.18 467.119 394.922 457.922C382.929 456.414 370.819 451.752 358.805 444.938C361.252 455.96 362.964 463.402 364.035 464.473C364.348 464.785 364.414 465.149 364.278 465.547C368.169 482.009 384.353 480.62 385.213 492.717C386.1 505.066 372.718 514.772 350.282 518.302C320.266 516.776 274.015 529.771 264.301 528.885C254.594 528.006 230.771 513.892 230.771 507.71C230.771 501.543 253.204 507.536 262.918 501.768C277.928 503.34 294.623 480.942 316.372 470.322L316.378 470.32C307.546 457.406 241.355 379.764 229.884 360.355C219.506 342.79 191.517 295.886 192.925 280.564C191.392 271.722 201.021 264.997 207.074 253.997C213.444 242.418 225.079 233.699 242.303 233.311L242.303 233.311Z"/><path fill="#AD5643" d="M485.619 422.08C485.619 422.08 466.438 463.348 422.424 452.11C397.114 445.644 365.369 439.603 341.087 372.02C330.957 343.824 311.871 326.904 311.871 326.904L358.807 444.94C358.807 444.94 395.236 471.782 435.073 467.561C457.72 465.171 481.449 460.29 485.619 422.08Z"/><path fill="#AD5643" d="M366.918 303.972C366.918 303.972 346.423 343.158 334.797 366.223C326.286 376.089 318.193 382.569 316.35 383.76C313.845 385.382 304.354 394.207 294.974 396.689C280.438 400.536 264.056 402.444 261.168 401.495C256.409 399.933 236.602 355.428 236.602 355.428C236.602 355.428 213.267 352.778 216.429 337.87C250.802 324.184 281.184 320.727 281.184 320.727C281.184 320.727 281.871 313.773 282.089 311.383C282.799 286.277 295.355 259.607 298.609 252.657L366.918 303.972Z"/><path fill="#CA7765" d="M344.122 134.023C409.75 134.768 393.603 202.361 386.397 214.831C379.538 226.708 386.469 251.19 377.925 276.223C357.582 308.39 341.037 352.208 328.126 367.318C323.442 375.253 307.028 385.495 298.296 391.28C285.2 399.955 225.786 399.74 201.962 398.865C178.139 397.991 146.306 395.725 134.066 402.068L134.064 402.066C134.064 402.066 129.98 411.836 117.556 418.687C112.238 421.621 101.645 425.886 90.6227 429.539C89.6145 429.873 88.5421 429.999 87.424 429.954C82.8051 431.011 72.9672 433.245 69.2431 433.846C64.5568 434.587 55.8316 430.982 51.1017 428.374C49.799 427.658 49.1358 426.481 48.9027 425.142C46.7045 424.103 44.5015 422.732 42.2662 421.502C39.5809 420.021 38.2229 416.498 38.1546 413.58C37.1658 413.009 36.1746 412.426 35.1752 411.871C31.6307 409.906 30.4172 404.386 31.4252 401.408C30.3916 400.701 29.3565 399.973 28.3094 399.28C23.8048 396.295 19.3074 387.221 22.6786 386.691C26.0425 386.161 39.5649 388.811 42.195 388.092C43.4229 387.765 53.202 381.381 59.5303 379.506C62.3057 378.686 78.2387 360.837 78.2387 360.837L78.2326 360.855C80.3568 358.473 82.4917 356.892 85.2031 356.446C93.4204 355.094 130.432 360.39 130.432 360.39V360.393H130.434C189.025 357.718 221.245 330.564 286.021 322.968C285.1 320.274 284.556 318.078 284.513 316.669C286.708 279.716 306.996 242.889 312.517 230.946C318.039 219.004 311.627 136.864 329.878 134.801C335.007 134.221 339.746 133.973 344.121 134.023L344.122 134.023Z"/><path fill="#180000" d="M178.885 54.6531C176.131 51.2462 176.828 41.3813 187.719 32.7296C198.603 24.0851 223.72 13.4969 238.978 12.5889C254.228 11.6809 277.482 21.2737 285.431 27.7462C287.566 29.4847 292.568 28.6914 295.759 32.4266C304.432 42.5814 315.737 56.8394 322.786 57.3917C326.262 57.6617 340.583 69.8346 351.873 79.1252C338.503 75.1797 334.541 79.2353 338.443 80.0843C354.83 83.6497 373.932 98.3616 379.889 107.423C381.842 110.395 361.156 102.743 362.448 105.614C365.02 111.332 382.441 121.356 386.187 132.783C388.16 138.8 388.278 152.211 384.583 151.711C373.648 131.77 354.859 127.19 346.328 127.052C343.304 127.003 346.685 131.864 354.832 137.517C348.089 135.816 341.767 132.051 337.566 124.973C336.171 122.622 339.053 137.056 336.423 136.313C334.353 129.173 329.192 118.39 324.631 117.548C320.293 116.748 322.866 123.083 328.236 130.189C315.03 124.206 315.918 121.393 306.429 112.506C305.038 109.903 307.364 125.13 299.252 123.957C303.451 112.849 291.644 90.4714 292.822 108.54C284.415 98.6982 291.247 89.5368 283.211 81.5042C281.458 79.7518 284.847 87.314 282.65 88.9186C276.781 77.4339 256.357 76.533 242.058 72.5086C215.168 64.932 178.884 54.6531 178.884 54.6531"/><path fill="#AD5643" d="M241.266 133.851C241.266 133.851 246.882 136.873 250.159 140.795C253.436 144.725 256.196 154.837 256.196 154.837C304.199 136.003 279.184 127.805 268.891 116.527C257.693 105.844 248.204 63.0317 248.204 63.0317L241.266 133.851Z"/><path fill="#CA7765" d="M251.923 89.5912C251.923 89.5912 263.504 109.205 257.06 122.658C250.615 136.104 227.917 149.194 224.786 149.688C221.647 150.182 196.486 139.433 194.982 136.716C194.183 135.263 193.269 131.78 193.269 131.78C193.269 131.78 195.335 129.978 194.798 128.918C188.521 126.89 191.343 121.372 189.926 119.825C188.502 118.278 180.247 122.155 180.233 118.479C180.218 114.804 183.59 97.4439 182.733 95.0467C181.868 92.6495 177.278 84.6653 174.98 81.2914C175.024 78.6327 174.548 74.0235 178.301 70.508C181.527 69.709 176.427 61.3332 178.882 54.6501C181.345 47.9743 202.713 39.8602 212.965 45.7878C223.217 51.7009 238.293 68.2488 240.603 67.704C246.18 69.3265 244.243 52.9361 251.429 53.5245C255.079 53.8274 259.651 58.5894 260.973 66.2817C262.25 73.7165 253.975 80.0257 251.923 89.5912Z"/><path fill="#555B57" d="M64.343 18.9641C77.7988 26.0395 87.3889 28.5947 65.694 59.0464C34.5566 80.0428 50.1006 91.3217 16.935 93.9802C3.70451 89.2221 12.8452 5.99938 28.4007 4.15426C43.2066 -4.13106 56.9144 6.34088 57.0112 7.16377"/><path fill="#757B77" d="M62.1774 20.9042C75.6331 27.9796 86.2964 28.5681 64.6015 59.0198C33.4641 80.0162 49.3657 88.792 17.6307 92.8809C8.15548 77.574 47.6965 40.1223 31.0636 11.2794C45.8694 2.99408 54.7489 8.45976 54.8458 9.28266"/><path fill="#BF6B59" d="M77.487 82.6459C77.487 82.6459 79.8336 65.1463 78.8164 60.3591C77.7993 55.5647 69.9017 34.7526 70.3957 30.8227C70.8898 26.9 69.0515 24.9822 65.4987 25.6578C61.9386 26.3479 53.6631 36.8593 57.7899 45.5328C61.9167 54.1918 63.5297 61.7611 61.8005 65.9308C60.0713 70.1005 77.487 82.6459 77.487 82.6459Z"/><path fill="#BF6B59" d="M22.5639 11.6052C22.8952 11.604 23.2318 11.6415 23.5756 11.7199C23.5756 11.7199 34.7941 17.6128 35.448 19.5959C36.1091 21.5863 35.2887 30.4627 27.5942 28.8645C26.997 28.7418 26.4575 28.6219 25.9011 28.5013C27.57 29.6205 28.915 30.6712 29.1274 31.3084C29.7479 33.1704 29.0622 41.1082 22.6056 40.7548C23.2064 41.2605 23.6308 41.7086 23.7415 42.0408C24.367 43.9381 23.6376 52.1378 16.8363 51.4516C17.1676 51.6806 17.4104 51.8952 17.5121 52.0837C18.3839 53.7327 18.9071 60.1761 12.0412 61.382C7.45665 62.1883 2.39288 59.9668 1.28126 57.5043C0.315521 55.3445 0.776894 48.7088 4.25062 47.2657C3.68463 46.7269 3.30414 46.1251 3.12846 45.4326C2.53196 43.1271 4.8552 36.7808 8.51841 34.718C8.51754 34.7146 8.51543 34.7115 8.51442 34.7106C7.86633 32.1806 10.7195 24.7733 15.0145 23.52C14.9419 23.3515 14.883 23.1786 14.8365 22.9985C14.1281 20.2335 17.5955 11.6259 22.5637 11.6083L22.5639 11.6052Z"/><path fill="#623E3E" d="M487.754 394.616C471.23 390.082 457.44 382.49 446.868 368.038C439.664 353.704 424.363 349.918 409.793 342.279C404.059 379.36 373.793 391.317 371.88 414.411C369.121 447.723 383.359 455.93 380.354 474.205C412.426 469.845 443.31 486.416 457.68 524.263C479.812 491.195 488.745 438.564 487.754 394.616Z"/><path fill="#251F12" d="M210.473 126.491C210.473 126.491 203.884 123.804 190.702 124.926C190.702 124.926 188.569 121.87 190.169 120.107C190.169 120.107 200.868 118.099 209.769 120.063C220.052 123.381 228.171 116.552 233.607 111.162C238.634 105.476 235.129 72.874 237.495 65.743L240.914 67.7153C242.248 70.353 243.524 88.9198 251.919 89.6516C258.1 96.8212 261.002 114.295 258.077 121.071C252.336 134.127 235.425 145.084 226.016 149.41C220.53 152.156 203.942 165.885 201.758 165.307C204.055 155.72 188.711 137.173 193.99 133.907C201.428 134.546 204.877 130.179 210.473 126.491V126.491Z"/><path fill="#965932" d="M77.8503 79.6802C74.558 87.9437 72.8831 94.3697 60.1993 93.8303C56.425 101.888 49.3729 100.256 42.9734 100.554C52.8397 103.713 59.6823 98.5645 60.9208 95.2815C71.6445 95.6258 77.3882 87.9915 77.8503 79.6802Z"/><path fill="#000" d="M187.044 73.5737C192.632 68.4404 206.121 72.3558 209.804 74.0794C209.621 73.546 189.415 73.8205 186.791 77.6193C186.023 78.731 186.049 74.4879 187.044 73.5737Z"/><path fill="#000" d="M180.586 74.9637C175.355 72.7701 175.869 77.9739 176.145 80.2081C175.807 79.7721 180.008 76.4757 183.477 78.5061C184.492 79.1 181.518 75.3543 180.586 74.9637H180.586Z"/></svg>